<?xml version="1.0" standalone="no"?>
<!DOCTYPE svg PUBLIC "-//W3C//DTD SVG 20010904//EN"
 "http://www.w3.org/TR/2001/REC-SVG-20010904/DTD/svg10.dtd">
<svg version="1.0" xmlns="http://www.w3.org/2000/svg"
 width="70.000000pt" height="70.000000pt" viewBox="0 0 70.000000 70.000000"
 preserveAspectRatio="xMidYMid meet">
<metadata>
Created by potrace 1.14, written by Peter Selinger 2001-2017
</metadata>
<g transform="translate(0.000000,70.000000) scale(0.100000,-0.100000)"
fill="#000000" stroke="none">
<path d="M355 630 c3 -5 2 -10 -4 -10 -5 0 -8 -9 -6 -20 2 -13 -2 -20 -11 -20
-8 0 -12 -4 -9 -10 3 -5 1 -10 -5 -10 -6 0 -8 -4 -5 -10 3 -5 -1 -10 -9 -10
-9 0 -16 -5 -16 -11 0 -6 -7 -9 -15 -5 -8 3 -15 2 -15 -3 0 -5 -14 -11 -32
-15 -18 -3 -47 -16 -65 -29 -44 -29 -73 -117 -62 -185 10 -65 66 -183 90 -189
10 -3 19 -10 19 -15 0 -5 5 -6 10 -3 6 3 10 1 10 -4 0 -6 3 -10 8 -10 4 1 9 0
12 -1 31 -12 151 -15 159 -3 3 6 23 16 43 24 21 7 36 15 34 17 -2 2 13 20 34
40 48 48 59 73 64 152 4 57 -15 103 -59 143 -23 21 -35 41 -35 59 0 14 -6 28
-12 30 -9 3 -9 11 3 29 23 34 13 49 -31 49 -21 0 -45 7 -54 15 -16 17 -51 21
-41 5z"/>
</g>
</svg>
